<?xml version="1.0" encoding="utf-8"?>
<!-- Generator: Adobe Illustrator 26.5.0, SVG Export Plug-In . SVG Version: 6.00 Build 0)  -->
<svg version="1.1" id="Layer_3" xmlns="http://www.w3.org/2000/svg" xmlns:xlink="http://www.w3.org/1999/xlink" x="0px" y="0px"
	 viewBox="0 0 741.6 483.3" style="enable-background:new 0 0 741.6 483.3;" xml:space="preserve">
<style type="text/css">
	.st0{fill:#00689E;}
	.st1{fill:#CECECE;}
	.st2{fill:#EF7834;}
	.st3{fill:#F47931;}
	.st4{font-family:'OpenSans-Bold';}
	.st5{font-size:110px;}
</style>
<title>One Health EJP</title>
<path class="st0" d="M348.1,246.2h-28v-60c0-7.4-1.3-13-4-16.7c-2.6-3.7-6.8-5.6-12.6-5.6c-7.8,0-13.5,2.6-17,7.9
	s-5.2,13.9-5.2,26.1v48.4h-28V143.4h21.4l3.8,13.1h1.6c3.1-4.9,7.6-8.9,12.9-11.3c5.5-2.5,11.7-3.8,18.7-3.8c12,0,21,3.2,27.2,9.7
	c6.2,6.5,9.3,15.8,9.3,28L348.1,246.2z"/>
<path class="st0" d="M422.8,248.2c-16.6,0-29.5-4.6-38.9-13.7c-9.3-9.1-14-22.1-14-38.9c0-17.2,4.3-30.6,12.9-40
	c8.6-9.4,20.6-14.1,35.8-14.1c14.5,0,25.9,4.1,34,12.4s12.2,19.7,12.2,34.4v13.6h-66.4c0.3,8,2.7,14.2,7.1,18.7s10.6,6.7,18.6,6.7
	c5.9,0,11.8-0.6,17.6-1.9c6-1.4,11.8-3.5,17.3-6.2V241c-5,2.5-10.3,4.3-15.7,5.5C437.7,247.7,430.9,248.2,422.8,248.2z M418.8,161.5
	c-6,0-10.6,1.9-14,5.7c-3.4,3.8-5.3,9.1-5.8,16.1h39.4c-0.1-6.9-1.9-12.3-5.4-16S424.8,161.5,418.8,161.5z"/>
<path class="st0" d="M76.3,356.9H57.9v-37.7H23.2v37.7H4.7v-87.4h18.5v34.3h34.6v-34.3h18.4V356.9z"/>
<path class="st0" d="M148.3,356.9H98v-87.4h50.3v15.2h-31.8v19.2h29.6v15.2h-29.6v22.5h31.8V356.9z"/>
<path class="st0" d="M220,356.9l-6.3-20.8h-31.9l-6.3,20.8h-20l30.9-87.8H209l31,87.8H220z M209.2,320.5c-5.9-18.9-9.2-29.5-9.9-32
	c-0.7-2.5-1.3-4.4-1.6-5.9c-1.3,5.1-5.1,17.7-11.3,37.8L209.2,320.5z"/>
<path class="st0" d="M250.6,356.9v-87.4h18.5v72.1h35.5v15.3H250.6z"/>
<path class="st0" d="M353.1,356.9h-18.5v-72h-23.7v-15.4h66v15.4h-23.7V356.9z"/>
<path class="st0" d="M462,356.9h-18.5v-37.7h-34.6v37.7h-18.5v-87.4h18.5v34.3h34.6v-34.3H462L462,356.9z"/>
<path class="st1" d="M562.6,357.4H484V220.9h78.7v23.7h-49.7v30h46.2v23.7h-46.2v35.2h49.7V357.4z"/>
<path class="st1" d="M575.8,397.6c-6.5,0-12.2-0.7-17.1-2.1v-24.1c4.5,1.2,9,1.8,13.6,1.9c6.4,0,10.9-2,13.6-5.9s4.1-10.1,4.1-18.5
	v-128h29v127.8c0,15.9-3.6,28.1-10.9,36.4S590,397.6,575.8,397.6z"/>
<path class="st1" d="M741.6,263.5c0,14.7-4.6,25.9-13.8,33.7s-22.2,11.7-39.2,11.7h-12.4v48.6h-29V220.9h43.6
	c16.6,0,29.2,3.6,37.8,10.7S741.6,249.3,741.6,263.5z M676.2,285.1h9.5c8.9,0,15.6-1.8,20-5.3s6.7-8.6,6.7-15.4
	c0-6.8-1.9-11.8-5.6-15c-3.7-3.2-9.5-4.9-17.4-4.9h-13.2L676.2,285.1z"/>
<polygon class="st2" points="208.6,62.9 222,62.9 211.4,71 215.3,83.8 204.4,76 193.5,83.8 197.5,71 186.9,62.9 200.2,62.9 
	204.4,50.1 "/>
<polygon class="st2" points="222.3,112.7 235.7,112.7 225,120.8 229,133.6 218.1,125.8 207.1,133.6 211.2,120.8 200.5,112.7 
	213.9,112.7 218.1,99.9 "/>
<polygon class="st2" points="21.8,111.2 35.2,111.2 24.5,119.3 28.5,132.1 17.5,124.3 6.6,132.1 10.6,119.3 0,111.2 13.4,111.2 
	17.6,98.5 "/>
<polygon class="st2" points="122.2,12.7 135.6,12.7 125,20.8 128.9,33.6 118,25.9 107.1,33.6 111.1,20.9 100.4,12.7 113.8,12.7 
	118,0 "/>
<polygon class="st2" points="121.7,214.1 135.1,214.1 124.5,222.2 128.4,234.9 117.5,227.2 106.6,234.9 110.6,222.2 99.9,214.1 
	113.3,214.1 117.5,201.3 "/>
<polygon class="st2" points="209.1,163.5 222.5,163.5 211.9,171.6 215.8,184.4 204.9,176.6 194,184.4 198,171.6 187.4,163.5 
	200.7,163.5 204.9,150.8 "/>
<polygon class="st2" points="172.3,200 185.7,200 175,208.1 179,220.9 168.1,213.1 157.2,220.9 161.2,208.1 150.5,200 163.9,200 
	168.1,187.3 "/>
<polygon class="st2" points="72.1,200.5 85.4,200.5 74.8,208.6 78.8,221.4 67.8,213.6 56.9,221.4 60.9,208.6 50.3,200.5 63.7,200.5 
	67.9,187.8 "/>
<polygon class="st2" points="35.1,163 48.5,163 37.8,171.1 41.8,183.9 30.9,176.1 19.9,183.9 24,171.1 13.3,163 26.7,163 
	30.9,150.2 "/>
<polygon class="st2" points="35.1,63.4 48.5,63.4 37.8,71.5 41.8,84.3 30.9,76.5 19.9,84.3 24,71.5 13.3,63.4 26.7,63.4 30.9,50.6 
	"/>
<polygon class="st2" points="72.1,26.3 85.4,26.3 74.8,34.4 78.8,47.2 67.8,39.5 56.9,47.2 60.9,34.4 50.3,26.3 63.7,26.3 
	67.9,13.6 "/>
<polygon class="st2" points="171.8,26.3 185.2,26.3 174.5,34.4 178.5,47.2 167.6,39.5 156.7,47.2 160.7,34.4 150,26.3 163.4,26.3 
	167.6,13.6 "/>
<text transform="matrix(1 0 0 1 37.2061 450.0854)" class="st3 st4 st5">MATRIX</text>
</svg>
