<?xml version="1.0" encoding="utf-8"?>
<!-- Generator: Adobe Illustrator 26.5.0, SVG Export Plug-In . SVG Version: 6.00 Build 0)  -->
<svg version="1.1" id="Layer_3" xmlns="http://www.w3.org/2000/svg" xmlns:xlink="http://www.w3.org/1999/xlink" x="0px" y="0px"
	 viewBox="0 0 1483.2 795.2" style="enable-background:new 0 0 1483.2 795.2;" xml:space="preserve">
<style type="text/css">
	.st0{fill:#00689E;}
	.st1{fill:#CFCECE;}
	.st2{fill:#EF7834;}
</style>
<title>One Health EJP</title>
<path class="st0" d="M696.2,492.4h-56.1V372.4c0-14.8-2.6-26-7.9-33.4c-5.3-7.4-13.7-11.1-25.2-11.1c-15.7,0-27,5.2-34,15.7
	s-10.5,27.9-10.5,52.1v96.7h-56.1V286.8h42.8l7.5,26.3h3.1c6.2-9.9,15.2-17.7,25.9-22.5c11-5.1,23.4-7.6,37.4-7.6
	c23.9,0,42.1,6.5,54.4,19.4s18.6,31.6,18.6,56L696.2,492.4z"/>
<path class="st0" d="M845.6,496.5c-33.2,0-59.1-9.1-77.7-27.4c-18.7-18.3-28-44.2-28-77.7c0-34.5,8.6-61.2,25.9-80
	c17.3-18.8,41.1-28.3,71.5-28.3c29.1,0,51.8,8.3,68,24.9c16.2,16.6,24.3,39.5,24.3,68.7v27.3H796.8c0.6,16,5.3,28.4,14.2,37.4
	s21.2,13.4,37.2,13.4c11.8,0.1,23.6-1.2,35.2-3.9c11.9-2.9,23.5-7,34.6-12.3V482c-10,5-20.6,8.7-31.5,11
	C875.3,495.3,861.7,496.5,845.6,496.5z M837.7,323c-11.9,0-21.2,3.8-28,11.3c-6.8,7.6-10.6,18.3-11.6,32.1h78.8
	c-0.2-13.9-3.9-24.6-10.9-32.1S849.6,323,837.7,323z"/>
<path class="st0" d="M152.6,713.8h-36.9v-75.4H46.5v75.5H9.4V539h37.1v68.5h69.3V539h36.9V713.8z"/>
<path class="st0" d="M296.6,713.8H195.9V539h100.7v30.4H233v38.4h59.2v30.4H233v45h63.6V713.8z"/>
<path class="st0" d="M440,713.8l-12.7-41.6h-63.7l-12.7,41.6h-39.9l61.7-175.5h45.3l62,175.5H440z M418.4,641.1
	c-11.7-37.7-18.3-59-19.8-64c-1.5-5-2.5-8.9-3.2-11.7c-2.6,10.2-10.2,35.4-22.6,75.7L418.4,641.1z"/>
<path class="st0" d="M501.2,713.8V539h37.1v144.2h70.9v30.6H501.2z"/>
<path class="st0" d="M706.1,713.8h-37.1v-144h-47.5V539h132v30.9h-47.5V713.8z"/>
<path class="st0" d="M924.1,713.8h-37v-75.4h-69.2v75.5h-37.1V539h37.1v68.5h69.2V539h36.9L924.1,713.8z"/>
<path class="st1" d="M1125.2,714.9H967.9V441.8h157.3v47.5h-99.4v60h92.5v47.5h-92.5v70.4h99.4V714.9z"/>
<path class="st1" d="M1151.6,795.2c-13.1,0-24.5-1.4-34.2-4.1v-48.2c8.9,2.3,18.1,3.6,27.3,3.7c12.7,0,21.8-4,27.3-11.9
	s8.2-20.3,8.2-37.1V441.8h57.9v255.6c0,31.9-7.3,56.2-21.9,72.9S1180.1,795.2,1151.6,795.2z"/>
<path class="st1" d="M1483.2,527c0,29.4-9.2,51.9-27.6,67.4s-44.5,23.3-78.4,23.4h-24.8v97.1h-57.9V441.8h87.3
	c33.1,0,58.3,7.1,75.6,21.4S1483.2,498.7,1483.2,527z M1352.4,570.3h19c17.8,0,31.1-3.5,40-10.6s13.3-17.3,13.3-30.7
	c0-13.6-3.7-23.6-11.1-30.1c-7.4-6.5-19-9.7-34.9-9.7h-26.3L1352.4,570.3z"/>
<polygon class="st2" points="417.3,125.7 444.1,125.7 422.8,141.9 430.7,167.5 408.8,152 387,167.5 395,142 373.7,125.7 
	400.5,125.7 408.9,100.2 "/>
<polygon class="st2" points="444.6,225.3 471.4,225.3 450.1,241.5 458,267.1 436.1,251.6 414.3,267.1 422.3,241.6 401,225.3 
	427.8,225.3 436.2,199.9 "/>
<polygon class="st2" points="43.5,222.4 70.3,222.4 49,238.6 56.9,264.2 35.1,248.7 13.2,264.2 21.3,238.7 0,222.4 26.7,222.4 
	35.2,196.9 "/>
<polygon class="st2" points="244.4,25.5 271.2,25.5 249.9,41.7 257.8,67.3 236,51.8 214.1,67.3 222.2,41.7 200.9,25.5 227.6,25.5 
	236.1,0 "/>
<polygon class="st2" points="243.4,428.1 270.2,428.1 248.9,444.3 256.8,469.9 235,454.4 213.1,469.9 221.2,444.4 199.9,428.1 
	226.6,428.1 235.1,402.6 "/>
<polygon class="st2" points="418.3,327 445.1,327 423.8,343.2 431.7,368.8 409.8,353.2 388,368.8 396,343.2 374.7,327 401.5,327 
	409.9,301.5 "/>
<polygon class="st2" points="344.6,400 371.4,400 350.1,416.2 358,441.8 336.2,426.3 314.3,441.8 322.4,416.2 301.1,400 327.8,400 
	336.2,374.5 "/>
<polygon class="st2" points="144.1,401 170.9,401 149.6,417.2 157.5,442.8 135.7,427.3 113.8,442.8 121.9,417.2 100.6,401 
	127.3,401 135.7,375.5 "/>
<polygon class="st2" points="70.1,326 96.9,326 75.6,342.2 83.5,367.8 61.7,352.2 39.8,367.8 47.9,342.2 26.6,326 53.3,326 
	61.8,300.5 "/>
<polygon class="st2" points="70.1,126.7 96.9,126.7 75.6,142.9 83.5,168.5 61.7,153 39.8,168.5 47.9,143 26.6,126.7 53.3,126.7 
	61.8,101.2 "/>
<polygon class="st2" points="144.1,52.6 170.9,52.6 149.6,68.8 157.5,94.4 135.7,78.9 113.8,94.4 121.9,68.9 100.6,52.6 127.3,52.6 
	135.7,27.2 "/>
<polygon class="st2" points="343.6,52.6 370.4,52.6 349.1,68.8 357,94.4 335.2,78.9 313.3,94.4 321.4,68.9 300.1,52.6 326.8,52.6 
	335.2,27.2 "/>
</svg>
